{"glyphs":{"0":{"ha":972,"x_min":0,"x_max":0,"o":"m 486 -14 b 56 521 232 -14 56 211 b 486 1056 56 831 246 1056 b 917 521 726 1056 917 831 b 486 -14 917 211 740 -14 m 486 1039 b 382 521 397 1039 382 843 b 486 3 382 199 383 3 b 590 521 589 3 590 199 b 486 1039 590 843 589 1039 "},"1":{"ha":771,"x_min":0,"x_max":0,"o":"m 250 19 l 250 1022 l 93 1022 l 93 1042 l 549 1042 l 549 19 l 701 19 l 701 0 l 69 0 l 69 19 "},"2":{"ha":903,"x_min":0,"x_max":0,"o":"m 56 0 l 56 188 l 338 368 b 519 708 456 444 519 536 b 329 994 519 894 438 994 b 93 772 211 994 97 899 b 243 892 111 838 172 892 b 414 731 344 892 414 821 b 229 565 414 633 319 565 b 68 763 139 565 68 635 b 451 1056 68 925 219 1056 b 825 792 689 1056 825 944 b 518 451 825 611 649 532 l 260 292 l 835 292 l 835 396 l 854 396 l 854 0 "},"3":{"ha":863,"x_min":0,"x_max":0,"o":"m 807 292 b 390 -14 807 97 614 -14 b 35 258 151 -14 35 131 b 194 425 35 357 104 425 b 339 272 278 425 339 364 b 183 125 339 186 265 125 b 90 160 135 125 106 143 b 340 19 131 86 214 19 b 500 292 478 19 500 119 b 296 554 500 436 461 554 l 296 572 b 458 821 447 572 458 718 b 347 1022 458 938 429 1022 b 174 949 274 1022 208 985 b 239 971 190 965 214 971 b 374 832 307 971 374 915 b 225 678 374 742 301 678 b 76 819 142 678 76 728 b 390 1054 76 961 249 1054 b 765 807 600 1054 765 960 b 417 564 765 686 674 586 b 807 292 692 540 807 439 "},"4":{"ha":951,"x_min":0,"x_max":0,"o":"m 889 0 l 354 0 l 354 19 l 486 19 l 486 289 l 49 289 l 576 1042 l 785 1042 l 785 308 l 938 308 l 938 289 l 785 289 l 785 19 l 889 19 m 486 308 l 486 879 l 85 308 "},"5":{"ha":792,"x_min":0,"x_max":0,"o":"m 78 86 b 250 11 97 49 178 11 b 438 299 374 11 438 113 b 283 578 438 513 393 578 b 92 468 200 578 126 535 l 65 468 l 65 1042 l 682 1042 l 682 1118 l 701 1118 l 701 750 l 85 750 l 85 488 b 350 611 125 557 208 611 b 750 299 588 611 750 507 b 300 -14 750 104 551 -14 b -14 207 144 -14 -14 51 b 149 376 -14 306 58 376 b 311 222 239 376 311 319 b 143 56 311 132 231 56 b 78 86 113 56 93 68 "},"6":{"ha":917,"x_min":0,"x_max":0,"o":"m 875 347 b 478 -14 875 139 715 -14 b 69 431 240 -14 69 139 b 771 1056 69 768 350 1056 l 771 1039 b 390 589 544 1039 417 818 b 529 688 407 653 446 688 b 875 347 697 688 875 583 m 556 347 b 472 649 556 603 526 649 b 389 389 417 649 389 597 b 482 6 389 133 414 6 b 556 347 550 6 556 119 "},"7":{"ha":799,"x_min":0,"x_max":0,"o":"m 178 147 b 438 525 178 257 326 376 b 581 743 481 582 508 622 l 75 743 l 75 639 l 56 639 l 56 1042 l 785 1042 b 478 539 785 1042 599 711 b 393 378 404 433 393 419 b 525 150 393 304 525 283 b 353 -14 525 57 456 -14 b 178 147 257 -14 178 38 "},"8":{"ha":903,"x_min":0,"x_max":0,"o":"m 56 264 b 346 535 56 407 151 508 b 83 778 175 560 83 650 b 451 1056 83 931 214 1056 b 819 778 689 1056 819 931 b 557 535 819 650 728 560 b 847 264 751 508 847 407 b 451 -14 847 97 717 -14 b 56 264 186 -14 56 97 m 389 778 b 451 549 389 592 411 549 b 514 778 492 549 514 592 b 451 1028 514 950 492 1028 b 389 778 411 1028 389 950 m 361 264 b 451 14 361 106 383 14 b 542 264 519 14 542 106 b 451 521 542 422 519 521 b 361 264 383 521 361 422 "},"9":{"ha":917,"x_min":0,"x_max":0,"o":"m 847 611 b 146 -14 847 274 567 -14 l 146 3 b 526 453 372 3 500 224 b 388 354 510 389 471 354 b 42 694 219 354 42 458 b 439 1056 42 903 201 1056 b 847 611 676 1056 847 903 m 361 694 b 444 393 361 439 390 393 b 528 653 500 393 528 444 b 435 1036 528 908 503 1036 b 361 694 367 1036 361 922 "}," ":{"ha":347,"x_min":0,"x_max":0,"o":""},"!":{"ha":611,"x_min":0,"x_max":0,"o":"m 469 860 b 314 428 454 699 314 567 l 294 428 b 139 860 294 567 154 699 b 139 886 138 869 139 878 b 304 1053 139 978 197 1053 b 471 886 411 1053 471 978 b 469 860 471 878 471 869 m 139 153 b 306 319 139 244 214 319 b 472 153 397 319 472 244 b 306 -14 472 61 397 -14 b 139 153 214 -14 139 61 "},"'":{"ha":444,"x_min":0,"x_max":0,"o":"m 374 890 b 232 581 358 786 232 733 l 213 581 b 71 890 213 733 86 786 b 69 915 69 900 69 907 b 222 1056 69 997 140 1056 b 375 915 304 1056 375 997 b 374 890 375 907 375 900 "},"\"":{"ha":819,"x_min":0,"x_max":0,"o":"m 749 890 b 607 581 733 786 607 733 l 588 581 b 446 890 588 733 461 786 b 444 915 444 900 444 907 b 597 1056 444 997 515 1056 b 750 915 679 1056 750 997 b 749 890 750 907 750 900 m 374 890 b 232 581 358 786 232 733 l 213 581 b 71 890 213 733 86 786 b 69 915 69 900 69 907 b 222 1056 69 997 140 1056 b 375 915 304 1056 375 997 b 374 890 375 907 375 900 "},"#":{"ha":875,"x_min":0,"x_max":0,"o":"m 264 361 l 308 701 l 83 701 l 83 721 l 311 721 l 354 1049 l 374 1049 l 331 721 l 583 721 l 626 1047 l 646 1049 l 603 721 l 833 721 l 833 701 l 600 701 l 556 361 l 792 361 l 792 342 l 553 342 l 507 -7 l 488 -8 l 533 342 l 281 342 l 235 -7 l 215 -7 l 261 342 l 42 342 l 42 361 m 536 361 l 581 701 l 328 701 l 283 361 "},"$":{"ha":882,"x_min":0,"x_max":0,"o":"m 718 913 b 467 1031 679 975 581 1024 l 467 717 b 826 319 628 646 826 567 b 467 -19 826 133 688 -8 l 467 -111 l 443 -111 l 443 -21 l 438 -21 b 369 -18 414 -21 392 -19 l 369 -111 l 347 -111 l 347 -15 b 35 229 136 10 35 125 b 181 385 35 321 92 385 b 311 238 250 385 311 326 b 165 119 311 154 226 119 b 81 158 128 119 94 135 b 347 6 117 94 199 24 l 347 392 b 69 757 208 453 69 536 b 347 1047 69 910 204 1017 l 347 1153 l 369 1153 l 369 1051 b 426 1056 389 1054 407 1056 b 443 1056 432 1056 438 1056 l 443 1153 l 467 1153 l 467 1054 b 771 840 618 1043 771 969 b 632 699 771 749 721 699 b 501 825 563 699 501 740 b 625 950 501 904 564 950 b 718 913 656 950 690 940 m 436 1032 b 369 1024 413 1032 390 1029 l 369 764 b 443 728 392 751 417 739 l 443 1032 b 436 1032 440 1032 439 1032 m 264 901 b 347 776 264 847 297 808 l 347 1017 b 264 901 299 996 264 958 m 424 1 b 443 1 431 1 436 1 l 443 353 b 369 383 419 363 394 372 l 369 4 b 424 1 386 3 404 1 m 632 168 b 467 343 632 258 560 303 l 467 4 b 632 168 583 15 632 78 "},"%":{"ha":1444,"x_min":0,"x_max":0,"o":"m 49 750 b 382 1056 49 949 225 1056 b 715 750 539 1056 715 949 b 382 444 715 551 511 444 b 49 750 225 444 49 551 m 1090 1042 l 378 0 l 354 0 l 1067 1042 m 326 750 b 382 464 326 529 349 464 b 438 750 415 464 438 529 b 382 1036 438 971 415 1036 b 326 750 349 1036 326 971 m 729 292 b 1063 597 729 490 906 597 b 1396 292 1219 597 1396 490 b 1063 -14 1396 93 1192 -14 b 729 292 906 -14 729 93 m 1007 292 b 1063 6 1007 71 1029 6 b 1118 292 1096 6 1118 71 b 1063 578 1118 513 1096 578 b 1007 292 1029 578 1007 513 "},"&":{"ha":1276,"x_min":0,"x_max":0,"o":"m 1200 639 l 1200 619 l 1068 619 b 928 246 1051 490 1006 357 l 1076 19 l 1249 19 l 1249 0 l 757 0 l 718 57 b 415 -14 633 13 533 -14 b 56 250 161 -14 56 107 b 381 557 56 424 236 499 l 297 681 b 233 851 261 733 233 803 b 610 1056 233 976 379 1056 b 951 890 828 1056 951 996 b 646 679 951 769 814 747 l 917 263 b 1049 619 985 363 1035 489 l 867 619 l 867 639 m 536 931 b 633 697 536 872 579 782 b 668 889 657 732 668 785 b 603 1042 668 982 654 1042 b 536 931 558 1042 536 990 m 369 383 b 604 54 369 208 474 54 b 706 76 638 54 672 61 l 396 535 b 369 383 378 508 369 467 "},"(":{"ha":531,"x_min":0,"x_max":0,"o":"m 504 -236 b 90 451 278 -139 90 128 b 504 1111 90 775 278 1014 l 513 1096 b 389 451 410 1026 389 718 b 513 -221 389 185 410 -151 "},")":{"ha":531,"x_min":0,"x_max":0,"o":"m 26 1111 b 440 424 253 1014 440 747 b 26 -236 440 100 253 -139 l 18 -221 b 142 424 121 -151 142 157 b 18 1096 142 690 121 1026 "},"*":{"ha":882,"x_min":0,"x_max":0,"o":"m 290 315 b 432 607 306 415 421 468 b 249 339 315 529 328 401 b 228 325 242 332 235 329 b 31 388 157 283 71 315 b 75 589 -11 458 4 549 b 97 600 82 593 89 597 b 421 625 192 638 296 563 b 97 649 296 686 192 611 b 75 660 89 651 82 656 b 31 863 4 700 -11 790 b 228 924 71 933 157 965 b 249 910 235 919 242 917 b 432 642 328 847 315 719 b 290 935 422 782 306 835 b 289 960 289 944 289 951 b 442 1100 289 1042 360 1100 b 594 960 524 1100 594 1042 b 593 935 594 951 594 944 b 451 643 578 835 463 782 b 635 911 568 721 556 849 b 656 925 642 918 649 921 b 853 863 726 967 813 935 b 808 661 894 792 879 701 b 786 650 801 657 794 653 b 463 625 692 613 588 688 b 786 601 588 564 692 639 b 808 590 794 599 801 594 b 853 388 879 550 894 460 b 656 326 813 317 726 285 b 635 340 649 331 642 333 b 451 608 556 403 568 531 b 593 315 461 468 578 415 b 594 290 594 306 594 299 b 442 150 594 208 524 150 b 289 290 360 150 289 208 b 290 315 289 299 289 306 "},"+":{"ha":736,"x_min":0,"x_max":0,"o":"m 358 429 l 83 429 l 83 449 l 358 449 l 358 722 l 378 722 l 378 449 l 653 449 l 653 429 l 378 429 l 378 153 l 358 153 "},",":{"ha":465,"x_min":0,"x_max":0,"o":"m 56 151 b 232 317 56 239 138 317 b 413 89 328 317 413 232 b 53 -217 413 -92 261 -217 l 53 -197 b 389 125 238 -197 403 -99 b 215 -14 368 47 296 -14 b 56 151 122 -14 56 64 "},"-":{"ha":500,"x_min":0,"x_max":0,"o":"m 417 392 l 417 372 l 83 372 l 83 392 "},".":{"ha":444,"x_min":0,"x_max":0,"o":"m 56 153 b 222 319 56 244 131 319 b 389 153 314 319 389 244 b 222 -14 389 61 314 -14 b 56 153 131 -14 56 61 "},"/":{"ha":722,"x_min":0,"x_max":0,"o":"m 667 1083 l 75 -208 l 56 -208 l 647 1083 "},":":{"ha":444,"x_min":0,"x_max":0,"o":"m 56 597 b 222 764 56 689 131 764 b 389 597 314 764 389 689 b 222 431 389 506 314 431 b 56 597 131 431 56 506 m 56 153 b 222 319 56 244 131 319 b 389 153 314 319 389 244 b 222 -14 389 61 314 -14 b 56 153 131 -14 56 61 "},";":{"ha":471,"x_min":0,"x_max":0,"o":"m 58 597 b 225 764 58 689 133 764 b 392 597 317 764 392 689 b 225 431 392 506 317 431 b 58 597 133 431 58 506 m 58 151 b 235 317 58 239 140 317 b 415 89 331 317 415 232 b 56 -217 415 -92 264 -217 l 56 -197 b 392 125 240 -197 406 -99 b 218 -14 371 47 299 -14 b 58 151 125 -14 58 64 "},"<":{"ha":778,"x_min":0,"x_max":0,"o":"m 83 550 l 694 833 l 694 814 l 100 539 l 694 263 l 694 243 l 83 526 "},"=":{"ha":778,"x_min":0,"x_max":0,"o":"m 694 718 l 694 699 l 83 699 l 83 718 m 694 510 l 694 490 l 83 490 l 83 510 "},">":{"ha":778,"x_min":0,"x_max":0,"o":"m 694 526 l 83 243 l 83 263 l 678 539 l 83 814 l 83 833 l 694 550 "},"?":{"ha":861,"x_min":0,"x_max":0,"o":"m 347 511 b 485 778 454 554 485 649 b 361 1024 485 908 471 1024 b 132 878 254 1024 154 943 b 228 917 139 889 175 917 b 381 785 310 917 381 868 b 232 638 381 694 322 638 b 83 793 135 638 83 701 b 425 1056 83 921 214 1056 b 792 778 649 1056 792 944 b 367 499 792 618 632 511 l 367 388 l 347 388 l 347 511 m 235 153 b 401 319 235 244 310 319 b 568 153 493 319 568 244 b 401 -14 568 61 493 -14 b 235 153 310 -14 235 61 "},"@":{"ha":1403,"x_min":0,"x_max":0,"o":"m 765 501 b 765 475 765 493 765 483 l 822 722 l 1114 722 l 1013 285 b 1032 142 997 217 975 142 b 1307 557 1161 142 1307 326 b 811 1078 1307 804 1154 1078 b 96 293 418 1078 96 718 b 582 -278 96 -128 338 -278 b 1076 -75 808 -278 954 -211 l 1090 -89 b 582 -297 974 -225 808 -297 b 76 293 328 -297 76 -143 b 813 1097 76 728 406 1097 b 1326 557 1164 1097 1326 811 b 918 94 1326 321 1197 94 b 715 243 749 94 713 169 b 500 97 672 154 601 97 b 283 319 368 97 283 175 b 619 735 283 528 428 735 b 765 501 751 735 765 615 m 749 481 b 718 643 749 539 749 643 b 590 333 672 643 590 506 b 644 190 590 240 611 190 b 749 481 688 190 749 313 "},"A":{"ha":1153,"x_min":0,"x_max":0,"o":"m 142 19 l 511 1063 l 667 1063 l 1028 19 l 1132 19 l 1132 0 l 590 0 l 590 19 l 681 19 l 581 331 l 275 331 l 165 19 l 326 19 l 326 0 l 21 0 l 21 19 m 282 350 l 574 350 l 433 782 "},"B":{"ha":1063,"x_min":0,"x_max":0,"o":"m 21 0 l 21 19 l 146 19 l 146 1022 l 21 1022 l 21 1042 l 563 1042 b 965 785 814 1042 965 965 b 683 536 965 646 869 561 b 1007 264 874 519 1007 444 b 590 0 1007 69 856 0 m 444 1022 l 444 544 l 507 544 b 660 771 599 544 660 606 b 507 1022 660 936 599 1022 m 444 525 l 444 19 l 521 19 b 688 292 626 19 688 126 b 521 525 688 457 626 525 "},"C":{"ha":1021,"x_min":0,"x_max":0,"o":"m 965 0 l 951 0 l 800 65 b 583 -14 743 15 674 -14 b 56 521 246 -14 56 211 b 583 1056 56 831 246 1056 b 779 978 663 1056 725 1028 l 938 1042 l 951 1042 l 951 715 l 932 715 b 597 1026 828 901 746 1026 b 382 521 425 1026 382 774 b 597 15 382 268 425 15 b 946 326 783 15 846 151 l 965 326 "},"D":{"ha":1132,"x_min":0,"x_max":0,"o":"m 21 0 l 21 19 l 146 19 l 146 1022 l 21 1022 l 21 1042 l 521 1042 b 1076 521 872 1042 1076 844 b 521 0 1076 197 858 0 m 444 1022 l 444 19 l 521 19 b 750 521 693 19 750 226 b 521 1022 750 815 679 1022 "},"E":{"ha":931,"x_min":0,"x_max":0,"o":"m 661 344 b 458 529 619 438 538 529 l 444 529 l 444 19 l 514 19 b 869 313 704 19 828 136 l 889 313 l 889 0 l 21 0 l 21 19 l 146 19 l 146 1022 l 21 1022 l 21 1042 l 875 1042 l 875 757 l 856 757 b 528 1022 814 906 690 1022 l 444 1022 l 444 549 l 458 549 b 661 726 538 549 619 633 l 681 726 l 681 344 l 661 344 "},"F":{"ha":889,"x_min":0,"x_max":0,"o":"m 146 19 l 146 1022 l 21 1022 l 21 1042 l 847 1042 l 847 757 l 828 757 b 542 1022 786 906 690 1022 l 444 1022 l 444 528 l 451 528 b 647 713 544 528 606 619 l 667 713 l 667 317 l 647 317 b 451 508 606 410 544 508 l 444 508 l 444 19 l 583 19 l 583 0 l 21 0 l 21 19 "},"G":{"ha":1111,"x_min":0,"x_max":0,"o":"m 1097 406 l 1097 386 l 1042 386 l 1042 201 b 590 -14 903 100 817 -14 b 56 521 260 -14 56 183 b 611 1056 56 858 329 1056 b 811 990 679 1056 749 1031 l 993 1042 l 1007 1042 l 1007 715 l 988 715 b 636 1025 932 843 810 1025 b 382 521 464 1025 382 774 b 590 14 382 268 425 14 b 729 174 651 14 701 88 l 729 386 l 583 386 l 583 406 "},"H":{"ha":1181,"x_min":0,"x_max":0,"o":"m 146 19 l 146 1022 l 21 1022 l 21 1042 l 556 1042 l 556 1022 l 444 1022 l 444 524 l 736 524 l 736 1022 l 625 1022 l 625 1042 l 1160 1042 l 1160 1022 l 1035 1022 l 1035 19 l 1160 19 l 1160 0 l 625 0 l 625 19 l 736 19 l 736 504 l 444 504 l 444 19 l 556 19 l 556 0 l 21 0 l 21 19 "},"I":{"ha":660,"x_min":0,"x_max":0,"o":"m 174 19 l 174 1022 l 21 1022 l 21 1042 l 639 1042 l 639 1022 l 472 1022 l 472 19 l 639 19 l 639 0 l 21 0 l 21 19 "},"J":{"ha":890,"x_min":0,"x_max":0,"o":"m 869 1042 l 869 1022 l 731 1022 l 731 236 b 314 -42 647 69 551 -42 b 14 174 138 -42 14 35 b 190 347 14 274 93 347 b 351 182 281 347 351 281 b 197 17 351 99 285 17 b 111 39 164 17 132 25 b 303 -21 151 -3 231 -21 b 432 264 401 -21 432 69 l 432 1022 l 251 1022 l 251 1042 "},"K":{"ha":1188,"x_min":0,"x_max":0,"o":"m 146 19 l 146 1022 l 21 1022 l 21 1042 l 583 1042 l 583 1022 l 444 1022 l 444 514 l 936 1022 l 785 1022 l 785 1042 l 1118 1042 l 1118 1022 l 965 1022 l 657 704 l 1061 19 l 1181 19 l 1181 0 l 611 0 l 611 19 l 728 19 l 454 494 l 444 483 l 444 19 l 556 19 l 556 0 l 21 0 l 21 19 "},"L":{"ha":917,"x_min":0,"x_max":0,"o":"m 21 0 l 21 19 l 146 19 l 146 1022 l 21 1022 l 21 1042 l 569 1042 l 569 1022 l 444 1022 l 444 19 l 514 19 b 869 313 704 19 828 136 l 889 313 l 889 0 "}}}
